<?xml version="1.0" encoding="iso-8859-1"?>
<!-- Generator: Adobe Illustrator 19.0.0, SVG Export Plug-In . SVG Version: 6.00 Build 0)  -->
<svg version="1.1" id="Capa_1" xmlns="http://www.w3.org/2000/svg" xmlns:xlink="http://www.w3.org/1999/xlink" x="0px" y="0px"
	 viewBox="0 0 512 512" style="enable-background:new 0 0 512 512;" xml:space="preserve">
<path style="fill:#A6D2E3;" d="M453.441,138.012c0,6.367-0.471,12.643-1.364,18.77c-4.131,28.135-17.396,53.401-36.667,72.662
	c-23.462,23.472-55.818,38.031-91.422,38.031H163.262l-40.828,92.014c-10.678,24.074-46.674,16.454-46.674-9.896v-97.619
	C35.223,230.046,7.52,187.112,7.52,138.012c0-35.594,14.559-67.96,38.031-91.422c8.382-8.382,17.907-15.631,28.305-21.487
	c18.7-10.528,40.237-16.544,63.117-16.544h187.015C395.187,8.559,453.441,66.814,453.441,138.012z"/>
<path style="fill:#C0DFEB;" d="M453.441,138.012c0,6.367-0.471,12.643-1.364,18.77c-40.517,34.963-93.287,56.099-151.01,56.099
	c-112.869,0-206.848-80.844-227.212-187.777c18.7-10.528,40.237-16.544,63.117-16.544h187.015
	C395.187,8.559,453.441,66.814,453.441,138.012z"/>
<path style="fill:#06638D;" d="M182.393,116.485v101.8c0,8.663-7.089,15.742-15.752,15.742h-29.759
	c-7.349,0-13.305-5.956-13.305-13.305V114.049c0-7.349,5.956-13.305,13.305-13.305h29.759
	C175.304,100.744,182.393,107.822,182.393,116.485z"/>
<path style="fill:#1B87B3;" d="M182.393,116.485v94.23H166.29c-7.349,0-13.305-5.956-13.305-13.305v-96.666h13.656
	C175.304,100.744,182.393,107.822,182.393,116.485z"/>
<path style="fill:#E3A76F;" d="M337.384,136.228v57.603c0,10.117-3.379,19.492-9.064,27.032
	c-8.242,10.919-21.316,18.008-35.975,18.008h-88.745c-11.661,0-21.206-9.545-21.206-21.206v-97.629
	c0-11.661,9.545-21.206,21.206-21.206h19.331c1.865,0,3.64-0.832,4.823-2.276l45.49-54.915c7.811-9.485,21.687-11.771,31.764-4.733
	c11.26,7.871,13.255,23.653,4.682,34.06l-14.589,17.707c-3.279,4.091-0.361,10.157,4.883,10.157c10.327,0,19.682,4.191,26.44,10.949
	C333.202,116.556,337.384,125.9,337.384,136.228z"/>
<path style="fill:#E3D000;" d="M485.355,440.644c-15.27,25.197-39.114,45.39-69.163,55.698
	c-68.11,23.382-142.287-12.884-165.669-81.005c-19.903-58.004,3.449-120.419,52.89-152.093c8.613-5.515,18.008-10.097,28.114-13.566
	c68.12-23.382,142.287,12.884,165.669,81.005C510.261,368.753,504.697,408.719,485.355,440.644z"/>
<path style="fill:#FFEA06;" d="M485.355,440.644c-8.613,5.525-18.018,10.107-28.124,13.576
	c-68.12,23.382-142.287-12.884-165.669-80.995c-13.075-38.081-7.5-78.047,11.851-109.981c8.613-5.515,18.008-10.097,28.114-13.566
	c68.12-23.382,142.287,12.884,165.669,81.005C510.261,368.753,504.697,408.719,485.355,440.644z"/>
<path style="fill:#F2BB88;" d="M337.384,136.228v57.603c0,10.117-3.379,19.492-9.064,27.032
	c-61.784-8.673-110.122-59.227-115.396-122.033h10.006c1.865,0,3.64-0.832,4.823-2.276l45.49-54.915
	c7.811-9.485,21.687-11.771,31.764-4.733c11.26,7.871,13.255,23.653,4.682,34.06l-14.589,17.707
	c-3.279,4.091-0.361,10.157,4.883,10.157c10.327,0,19.682,4.191,26.44,10.949C333.202,116.556,337.384,125.9,337.384,136.228z"/>
<path d="M322.725,51.824c-3.732-27.298-38.109-36.607-55.657-15.311l-44.969,54.294h-18.499c-8.021,0-15.29,3.239-20.564,8.482
	c-4.271-4.061-10.037-6.567-16.393-6.567h-29.759c-11.761,0-21.326,9.565-21.326,21.326v106.673
	c0,11.761,9.565,21.326,21.326,21.326h29.759c5.635,0,10.809-1.965,14.889-5.264c5.344,6.186,13.255,10.107,22.068,10.107h88.745
	c29.257,0,53.061-23.803,53.061-53.061v-57.603c0-23.823-18.439-43.415-41.791-45.27l12.272-14.899
	C321.421,69.34,323.918,60.507,322.725,51.824z M174.372,218.285c0,4.261-3.469,7.72-7.73,7.72h-29.759
	c-2.908,0-5.284-2.366-5.284-5.284V114.049c0-2.918,2.376-5.284,5.284-5.284h29.759c4.261,0,7.73,3.459,7.73,7.72
	C174.372,149.18,174.372,186.539,174.372,218.285z M303.504,65.861l-14.589,17.707c-3.002,3.002-4.472,9.623-1.795,15.19
	c2.396,4.993,7.329,8.091,12.864,8.091c16.193,0,29.378,13.185,29.378,29.378v57.603c0,20.414-16.604,37.018-37.018,37.018h-88.745
	c-7.269,0-13.185-5.916-13.185-13.185v-97.629c0-7.269,5.916-13.185,13.185-13.185h19.331c4.281,0,8.292-1.895,10.999-5.184
	l45.511-54.935c8.721-10.606,25.545-6.169,27.393,7.269C307.414,58.261,306.201,62.583,303.504,65.861z"/>
<path d="M68.241,294.707c0,4.161,3.369,7.52,7.52,7.52c4.161,0,7.52-3.359,7.52-7.52v-42.733c0-2.757-1.514-5.304-3.94-6.618
	c-39.665-21.447-64.3-62.586-64.3-107.344c0-67.228,54.695-121.933,121.933-121.933h187.015
	c93.931,0,152.415,102.287,105.469,182.934c-2.096,3.579-0.872,8.192,2.707,10.277c3.589,2.086,8.202,0.872,10.287-2.717
	C495.152,116.136,429.676,1.04,323.988,1.04H136.973C61.443,1.04,0,62.482,0,138.012c0,48.789,26.029,93.728,68.241,118.363V294.707
	z"/>
<path d="M504.175,327.865c-1.544-3.85-5.926-5.725-9.776-4.181c-3.73,1.484-5.605,5.625-4.331,9.385c0.01,0.01,0.01,0.03,0.02,0.05
	c22.013,64.103-12.053,134.047-76.332,156.113c-63.973,21.969-133.997-11.895-156.113-76.332
	c-31.082-90.51,48.872-179.513,140.983-160.224c32.396,6.758,61.473,26.53,79.28,54.905c2.206,3.509,6.848,4.572,10.367,2.366
	s4.582-6.848,2.366-10.367c-17.405-27.73-44.521-48.717-76.663-58.525c3.289-2.858,6.437-5.886,9.455-9.074
	c2.858-3.018,2.717-7.771-0.301-10.628c-3.018-2.858-7.771-2.717-10.628,0.301c-5.294,5.595-11.069,10.648-17.246,15.09
	c-36.11-5.686-72.015,3.367-100.396,23.211H163.262c-2.978,0-5.675,1.745-6.878,4.462l-40.818,92.014
	c-7.447,16.783-32.286,11.276-32.286-6.838v-24.806c0-4.151-3.359-7.52-7.52-7.52c-4.151,0-7.52,3.369-7.52,7.52v24.806
	c0,34.038,46.96,44.702,61.072,12.944l38.833-87.542h108.668c-37.289,36.924-50.793,92.146-33.398,142.788
	c19.131,55.738,71.549,93.177,130.435,93.177C470.027,510.96,535.261,415.041,504.175,327.865z"/>
<circle cx="345.305" cy="318.403" r="12.481"/>
<circle cx="402.416" cy="318.403" r="12.481"/>
<path d="M314.119,345.794c0-4.153-3.366-7.52-7.52-7.52c-4.154,0-7.52,3.367-7.52,7.52c0,41.235,33.548,74.782,74.783,74.782
	s74.783-33.547,74.783-74.782c0-4.153-3.366-7.52-7.52-7.52c-4.154,0-7.52,3.367-7.52,7.52c0,32.942-26.8,59.742-59.743,59.742
	S314.119,378.736,314.119,345.794z"/>
<g>
</g>
<g>
</g>
<g>
</g>
<g>
</g>
<g>
</g>
<g>
</g>
<g>
</g>
<g>
</g>
<g>
</g>
<g>
</g>
<g>
</g>
<g>
</g>
<g>
</g>
<g>
</g>
<g>
</g>
</svg>
